<svg width="100" height="25" viewBox="0 0 100 25" fill="none" xmlns="http://www.w3.org/2000/svg">
<g clip-path="url(#clip0_162_34119)">
<path d="M20.7521 14.0995C22.7951 14.0995 25.7551 13.6762 25.7551 11.2458C25.7551 11.0562 25.7502 10.8716 25.7044 10.6869L24.4867 5.3979C24.204 4.23584 23.9588 3.70629 21.9142 2.68478C20.3304 1.87411 16.8769 0.535522 15.8554 0.535522C14.9042 0.535522 14.6231 1.76787 13.4953 1.76787C12.3676 1.76787 11.5929 0.852599 10.5713 0.852599C9.54983 0.852599 8.95 1.52271 8.45805 2.89562C8.45805 2.89562 7.0835 6.77081 6.90699 7.33469C6.87103 7.44092 6.87103 7.5586 6.87103 7.65176C6.87103 9.15869 12.8023 14.0995 20.7537 14.0995M26.0738 12.2314C26.3565 13.57 26.3565 13.7105 26.3565 13.8871C26.3565 16.1769 23.7839 17.4452 20.4023 17.4452C12.7566 17.4452 6.062 12.9701 6.062 10.0119C6.062 9.55422 6.16823 9.13091 6.30879 8.81383C3.55971 8.95439 0.00158691 9.44798 0.00158691 12.5844C0.00158691 17.7279 12.1927 24.0711 21.8455 24.0711C29.2445 24.0711 31.111 20.7238 31.111 18.081C31.111 16.002 29.3148 13.6419 26.0721 12.2314" fill="#EE0000"/>
<path d="M26.0722 12.233C26.3549 13.5716 26.3549 13.7121 26.3549 13.8887C26.3549 16.1785 23.7824 17.4468 20.4008 17.4468C12.755 17.4468 6.06042 12.9718 6.06042 10.0135C6.06042 9.55583 6.16666 9.13251 6.30722 8.81544L6.90705 7.33466C6.87109 7.44089 6.87109 7.55857 6.87109 7.65173C6.87109 9.15866 12.8024 14.0995 20.7538 14.0995C22.7968 14.0995 25.7567 13.6762 25.7567 11.2458C25.7567 11.0562 25.7518 10.8715 25.7061 10.6868L26.0738 12.233H26.0722Z" fill="black"/>
<path d="M94.6718 15.6212C94.6718 17.5629 95.8404 18.5092 97.9717 18.5092C98.4882 18.5092 99.3805 18.3882 99.915 18.2346V15.9824C99.4508 16.1197 99.1076 16.172 98.6598 16.172C97.7837 16.172 97.4568 15.8974 97.4568 15.072V11.6169H100V9.296H97.4568V6.35732L94.6718 6.95879V9.296H92.8331V11.6169H94.6718V15.6212ZM86.0192 15.6735C86.0192 15.072 86.6207 14.7795 87.531 14.7795C88.1325 14.7795 88.6833 14.8661 89.1818 14.9854V16.154C88.6653 16.4466 88.0639 16.5839 87.4461 16.5839C86.552 16.5839 86.0192 16.2406 86.0192 15.6735ZM86.8691 18.5435C87.8481 18.5435 88.6392 18.3376 89.3779 17.8391V18.3899H92.1286V12.5632C92.1286 10.3453 90.6332 9.12602 88.1407 9.12602C86.7482 9.12602 85.3736 9.4529 83.8945 10.123L84.8915 12.1693C85.9571 11.7231 86.8511 11.4469 87.6422 11.4469C88.7944 11.4469 89.3779 11.8931 89.3779 12.8051V13.2513C88.7242 13.0797 88.0377 12.993 87.3153 12.993C84.9781 12.993 83.5676 13.9721 83.5676 15.7258C83.5676 17.3242 84.8392 18.5452 86.8675 18.5452M71.7589 18.3899H74.7156V13.6795H79.6662V18.3899H82.6229V6.35732H79.6662V10.9811H74.7156V6.35732H71.7589V18.3899ZM60.4929 13.8348C60.4929 12.5289 61.5242 11.5319 62.8824 11.5319C63.6392 11.5319 64.3256 11.7901 64.8078 12.2363V15.4169C64.3093 15.8974 63.6555 16.1393 62.8824 16.1393C61.5422 16.1393 60.4929 15.1423 60.4929 13.8364M64.8421 18.3915H67.5928V5.75586L64.8078 6.35732V9.77815C64.1197 9.38262 63.3303 9.17669 62.4869 9.17669C59.8392 9.17669 57.7602 11.223 57.7602 13.8348C57.7602 16.4466 59.8065 18.5108 62.4019 18.5108C63.2959 18.5108 64.1377 18.2362 64.8421 17.7198V18.3899V18.3915ZM52.2261 11.4126C53.1021 11.4126 53.8425 11.9797 54.1334 12.8558H50.335C50.6096 11.9454 51.2977 11.4126 52.2261 11.4126ZM47.5337 13.8527C47.5337 16.5005 49.6993 18.5631 52.4843 18.5631C54.0141 18.5631 55.132 18.1513 56.2827 17.1886L54.444 15.5558C54.0141 16.002 53.3783 16.2439 52.6216 16.2439C51.5903 16.2439 50.7486 15.6768 50.3873 14.8007H56.8678V14.1126C56.8678 11.2246 54.9261 9.14563 52.2784 9.14563C49.6306 9.14563 47.5337 11.2083 47.5337 13.856M42.7383 8.88903C43.7173 8.88903 44.2681 9.50847 44.2681 10.2472C44.2681 10.986 43.7173 11.6054 42.7383 11.6054H39.816V8.88903H42.7383ZM36.8593 18.3948H39.816V14.0113H42.0682L44.3367 18.3948H47.6366L44.9889 13.5814C46.4157 12.962 47.2574 11.6741 47.2574 10.1949C47.2574 8.02933 45.556 6.36223 43.0112 6.36223H36.8577V18.3948H36.8593Z" fill="white"/>
</g>
<defs>
<clipPath id="clip0_162_34119">
<rect width="100" height="23.5356" fill="white" transform="translate(0 0.535522)"/>
</clipPath>
</defs>
</svg>
